<svg width="595" height="257" viewBox="0 0 595 257" fill="none" xmlns="http://www.w3.org/2000/svg">
<g id="moon-negative">
<path id="freezone" fill-rule="evenodd" clip-rule="evenodd" d="M0 257H595V0H0V257Z" fill="black"/>
<path id="Fill 31" fill-rule="evenodd" clip-rule="evenodd" d="M288.325 106.322L268.853 145.689L249.385 106.322V164.449H230.482V64.8216H247.963L268.853 107.174L289.888 64.8216H307.227V164.449H288.325V106.322Z" fill="#FFFFFE"/>
<path id="Fill 33" fill-rule="evenodd" clip-rule="evenodd" d="M360.798 137.73V91.1148C360.798 84.4348 357.102 80.3118 351.133 80.3118C345.164 80.3118 341.469 84.4348 341.469 91.1148V137.73C341.469 144.835 345.023 149.099 351.133 149.099C357.244 149.099 360.798 144.835 360.798 137.73ZM379.558 91.1148V137.73C379.558 154.074 367.478 166.011 351.133 166.011C334.648 166.011 322.569 154.074 322.569 137.73V91.5408C322.569 75.3388 334.648 63.3998 351.133 63.3998C367.335 63.3998 379.558 74.9118 379.558 91.1148Z" fill="#FFFFFE"/>
<path id="Fill 35" fill-rule="evenodd" clip-rule="evenodd" d="M432.277 137.73V91.1148C432.277 84.4348 428.581 80.3118 422.612 80.3118C416.642 80.3118 412.947 84.4348 412.947 91.1148V137.73C412.947 144.835 416.5 149.099 422.612 149.099C428.722 149.099 432.277 144.835 432.277 137.73ZM451.035 91.1148V137.73C451.035 154.074 438.956 166.011 422.612 166.011C406.126 166.011 394.046 154.074 394.046 137.73V91.5408C394.046 75.3388 406.126 63.3998 422.612 63.3998C438.813 63.3998 451.035 74.9118 451.035 91.1148Z" fill="#FFFFFE"/>
<path id="Fill 37" fill-rule="evenodd" clip-rule="evenodd" d="M485.71 112.29V164.448H466.808V64.8214H484.999L507.17 117.122V64.8214H525.93V164.448H508.307L485.71 112.29Z" fill="#FFFFFE"/>
<path id="Fill 39" fill-rule="evenodd" clip-rule="evenodd" d="M230.794 199.372L231.098 198.966C231.332 198.696 231.568 198.595 231.839 198.831C232.177 199.136 234.672 201.429 238.078 201.429C241.147 201.429 243.743 199.372 243.743 196.909C243.743 193.909 241.281 192.56 237.201 191.177C233.289 189.794 230.693 188.411 230.693 184.534C230.693 182.005 232.716 178.565 237.977 178.565C241.315 178.565 243.777 180.284 243.777 180.284C243.912 180.386 244.148 180.622 243.912 180.993C243.811 181.128 243.709 181.296 243.642 181.431C243.44 181.7 243.236 181.802 242.9 181.601C242.799 181.532 240.54 180.015 237.943 180.015C233.795 180.015 232.244 182.577 232.244 184.499C232.244 187.366 234.436 188.614 237.842 189.727C242.462 191.311 245.396 192.931 245.396 196.843C245.396 200.214 241.922 202.845 238.044 202.845C234.031 202.845 231.332 200.483 230.896 200.079C230.693 199.911 230.525 199.741 230.794 199.372Z" fill="#FFFFFE"/>
<path id="Fill 41" fill-rule="evenodd" clip-rule="evenodd" d="M259.492 178.802C259.527 178.665 259.661 178.566 259.796 178.566H260.167C260.335 178.566 260.435 178.632 260.504 178.802L267.45 199.507H267.517L274.498 178.802C274.565 178.632 274.667 178.566 274.836 178.566H275.207C275.342 178.566 275.476 178.665 275.51 178.802L280.299 202.07C280.366 202.406 280.231 202.507 279.928 202.507H279.118C278.916 202.507 278.747 202.339 278.714 202.136L274.902 182.376H274.836L268.023 202.575C267.956 202.777 267.754 202.845 267.552 202.845H267.416C267.248 202.845 267.046 202.812 266.978 202.575L260.167 182.376H260.099L256.289 202.136C256.255 202.339 256.086 202.507 255.884 202.507H255.074C254.771 202.507 254.636 202.406 254.703 202.07L259.492 178.802Z" fill="#FFFFFE"/>
<path id="Fill 43" fill-rule="evenodd" clip-rule="evenodd" d="M305.59 194.685L299.823 181.095H299.756L293.887 194.685H305.59ZM288.931 202.103L299.319 178.632C299.385 178.498 299.553 178.396 299.722 178.396H299.823C299.991 178.396 300.16 178.431 300.262 178.632L310.547 202.103C310.614 202.306 310.614 202.507 310.243 202.507H309.366C309.13 202.507 308.962 202.339 308.895 202.205L306.163 195.999H293.281L290.583 202.205C290.516 202.339 290.347 202.507 290.111 202.507H289.167C288.931 202.507 288.83 202.372 288.931 202.103Z" fill="#FFFFFE"/>
<path id="Fill 45" fill-rule="evenodd" clip-rule="evenodd" d="M329.128 191.986C332.365 191.986 335.097 189.457 335.097 186.119C335.097 182.916 332.365 180.455 329.094 180.455H322.013V191.986H329.128ZM320.394 179.341C320.394 179.105 320.563 178.902 320.832 178.902H329.195C333.31 178.902 336.715 182.006 336.715 186.119C336.715 189.525 334.354 192.257 331.152 193.168L336.074 201.9C336.243 202.172 336.176 202.507 335.839 202.507H334.793C334.557 202.507 334.422 202.406 334.321 202.205L329.432 193.369C328.993 193.404 328.622 193.404 328.184 193.404H321.979V202.07C321.979 202.306 321.777 202.507 321.44 202.507H320.832C320.597 202.507 320.394 202.306 320.394 202.07V179.341Z" fill="#FFFFFE"/>
<path id="Fill 47" fill-rule="evenodd" clip-rule="evenodd" d="M353.205 180.353H346.764C346.427 180.353 346.325 180.15 346.325 179.847V179.341C346.325 179.072 346.527 178.902 346.764 178.902H361.265C361.534 178.902 361.702 179.105 361.702 179.341V179.914C361.702 180.15 361.534 180.353 361.265 180.353H354.79V202.07C354.79 202.306 354.586 202.507 354.25 202.507H353.643C353.407 202.507 353.205 202.306 353.205 202.07V180.353Z" fill="#FFFFFE"/>
<path id="Fill 49" fill-rule="evenodd" clip-rule="evenodd" d="M391.259 179.341C391.259 179.105 391.462 178.902 391.697 178.902H405.219C405.456 178.902 405.658 179.105 405.658 179.341V179.913C405.658 180.15 405.456 180.353 405.219 180.353H392.878V190.603H403.569C403.803 190.603 404.006 190.806 404.006 191.042C404.006 191.413 404.073 192.021 403.569 192.021H392.878L392.844 202.07C392.844 202.306 392.642 202.507 392.305 202.507H391.697C391.462 202.507 391.259 202.306 391.259 202.07V179.341Z" fill="#FFFFFE"/>
<path id="Fill 51" fill-rule="evenodd" clip-rule="evenodd" d="M428.453 201.361C434.355 201.361 439.143 196.64 439.143 190.74C439.143 184.838 434.355 180.049 428.453 180.049C422.553 180.049 417.798 184.838 417.798 190.74C417.798 196.64 422.553 201.361 428.453 201.361ZM428.453 178.566C435.232 178.566 440.628 183.994 440.628 190.74C440.628 197.517 435.232 202.845 428.453 202.845C421.71 202.845 416.314 197.517 416.314 190.74C416.314 183.994 421.71 178.566 428.453 178.566Z" fill="#FFFFFE"/>
<path id="Fill 53" fill-rule="evenodd" clip-rule="evenodd" d="M462.682 178.566C466.121 178.566 468.685 179.712 470.876 181.701C471.045 181.871 471.078 182.14 470.911 182.308L470.369 182.882C470.168 183.084 469.999 183.05 469.797 182.847C467.875 181.129 465.448 180.084 462.682 180.084C456.781 180.084 452.161 184.906 452.161 190.74C452.161 196.539 456.781 201.328 462.682 201.328C465.582 201.328 467.774 200.181 469.797 198.496C469.999 198.326 470.203 198.326 470.336 198.427L470.911 199.002C471.078 199.136 471.078 199.406 470.911 199.574C468.618 201.8 465.682 202.845 462.682 202.845C455.938 202.845 450.475 197.517 450.475 190.74C450.475 183.994 455.938 178.566 462.682 178.566Z" fill="#FFFFFE"/>
<path id="Fill 55" fill-rule="evenodd" clip-rule="evenodd" d="M483.522 179.341C483.522 179.105 483.724 178.902 483.96 178.902H484.668C484.905 178.902 485.107 179.105 485.107 179.341V193.739C485.107 198.089 487.838 201.294 492.324 201.294C496.842 201.294 499.607 198.124 499.607 193.773V179.341C499.607 179.071 499.743 178.902 500.08 178.902H500.754C500.99 178.902 501.192 179.105 501.192 179.341V193.909C501.192 199.068 497.685 202.845 492.324 202.845C486.996 202.845 483.522 199.068 483.522 193.909V179.341Z" fill="#FFFFFE"/>
<path id="Fill 57" fill-rule="evenodd" clip-rule="evenodd" d="M512.724 199.372L513.028 198.966C513.263 198.696 513.499 198.595 513.769 198.831C514.107 199.136 516.602 201.429 520.008 201.429C523.077 201.429 525.673 199.372 525.673 196.909C525.673 193.909 523.211 192.56 519.131 191.177C515.219 189.794 512.622 188.411 512.622 184.534C512.622 182.005 514.646 178.565 519.907 178.565C523.245 178.565 525.707 180.284 525.707 180.284C525.842 180.386 526.078 180.622 525.842 180.993C525.741 181.128 525.639 181.296 525.571 181.431C525.37 181.7 525.167 181.802 524.83 181.601C524.729 181.532 522.469 180.015 519.873 180.015C515.725 180.015 514.174 182.577 514.174 184.499C514.174 187.366 516.366 188.614 519.772 189.727C524.392 191.311 527.326 192.931 527.326 196.843C527.326 200.214 523.852 202.845 519.974 202.845C515.961 202.845 513.263 200.483 512.826 200.079C512.622 199.911 512.453 199.741 512.724 199.372Z" fill="#FFFFFE"/>
<path id="Fill 59" fill-rule="evenodd" clip-rule="evenodd" d="M153.606 123.014C144.768 123.014 137.601 115.85 137.601 107.01C137.601 98.172 144.768 91.008 153.606 91.008C162.444 91.008 169.609 98.172 169.609 107.01C169.609 115.85 162.444 123.014 153.606 123.014ZM128.255 57C88.7434 57 56.7104 89.034 56.7104 128.548C56.7104 168.062 88.7434 200.093 128.255 200.093C167.769 200.093 199.802 168.062 199.802 128.548C199.802 89.034 167.769 57 128.255 57Z" fill="#FFFFFE"/>
</g>
</svg>